<svg t="1685070893548" class="icon" viewBox="0 0 1024 1024" version="1.1" xmlns="http://www.w3.org/2000/svg" p-id="7817" width="20" height="20"><path d="M213.333333 640H128v170.666667c0 46.933333 38.4 85.333333 85.333333 85.333333h170.666667v-85.333333H213.333333v-170.666667zM213.333333 213.333333h170.666667V128H213.333333c-46.933333 0-85.333333 38.4-85.333333 85.333333v170.666667h85.333333V213.333333z m597.333334-85.333333h-170.666667v85.333333h170.666667v170.666667h85.333333V213.333333c0-46.933333-38.4-85.333333-85.333333-85.333333z m0 682.666667h-170.666667v85.333333h170.666667c46.933333 0 85.333333-38.4 85.333333-85.333333v-170.666667h-85.333333v170.666667zM512 384c-70.826667 0-128 57.173333-128 128s57.173333 128 128 128 128-57.173333 128-128-57.173333-128-128-128z" p-id="7818" fill="#ffffff"></path></svg>